# xmcd CD database file
#
# Track frame offsets:
#	187
#	23707
#	44035
#	60735
#	82710
#	99657
#	124170
#	145232
#	165665
#
# Disc length: 2473 seconds
#
# Revision: 0
# Processed by: cddbd v1.5.1PL2 Copyright (c) Steve Scherf et al.
# Submitted via: CDex 1.51
#
DISCID=7309a709
DTITLE=伊東　真由美 - 美人声
DYEAR=1900
DGENRE=Pop
TTITLE0=ドラキュラ感覚
TTITLE1=美人声
TTITLE2=1-23-9 マンション・パラノイア
TTITLE3=無言の告白
TTITLE4=この街の夜は‥
TTITLE5=抱きしめて
TTITLE6=Dear Friend
TTITLE7=月の小舟
TTITLE8=電車の中に咲く花
EXTD=
EXTT0=
EXTT1=
EXTT2=
EXTT3=
EXTT4=
EXTT5=
EXTT6=
EXTT7=
EXTT8=
PLAYORDER=
